<?xml version="1.0" encoding="UTF-8" standalone="no"?>
<!-- Created with Inkscape (http://www.inkscape.org/) -->

<svg
   xmlns:dc="http://purl.org/dc/elements/1.1/"
   xmlns:cc="http://creativecommons.org/ns#"
   xmlns:rdf="http://www.w3.org/1999/02/22-rdf-syntax-ns#"
   xmlns:svg="http://www.w3.org/2000/svg"
   xmlns="http://www.w3.org/2000/svg"
   xmlns:sodipodi="http://sodipodi.sourceforge.net/DTD/sodipodi-0.dtd"
   xmlns:inkscape="http://www.inkscape.org/namespaces/inkscape"
   width="100"
   height="100"
   id="svg4418"
   version="1.1"
   inkscape:version="0.48.5 r10040"
   sodipodi:docname="boardTile.svg">
  <defs
     id="defs4420" />
  <sodipodi:namedview
     id="base"
     pagecolor="#ffffff"
     bordercolor="#666666"
     borderopacity="1.0"
     inkscape:pageopacity="0.0"
     inkscape:pageshadow="2"
     inkscape:zoom="1.08"
     inkscape:cx="130.10011"
     inkscape:cy="68.399914"
     inkscape:document-units="px"
     inkscape:current-layer="layer1"
     showgrid="false"
     inkscape:window-width="1920"
     inkscape:window-height="985"
     inkscape:window-x="-2"
     inkscape:window-y="32"
     inkscape:window-maximized="1"
     fit-margin-top="0"
     fit-margin-left="0"
     fit-margin-right="0"
     fit-margin-bottom="0" />
  <metadata
     id="metadata4423">
    <rdf:RDF>
      <cc:Work
         rdf:about="">
        <dc:format>image/svg+xml</dc:format>
        <dc:type
           rdf:resource="http://purl.org/dc/dcmitype/StillImage" />
        <dc:title></dc:title>
      </cc:Work>
    </rdf:RDF>
  </metadata>
  <g
     inkscape:label="Ebene 1"
     inkscape:groupmode="layer"
     id="layer1"
     transform="translate(0,-952.375)">
    <path
       inkscape:connector-curvature="0"
       style="fill:#c9bca8;fill-opacity:1;stroke:none"
       d="m 4,956.3622 0,93.1034 92.307702,0.7958 1.32626,-93.8992 z m 50.00001,10.46875 c 21.83362,0 39.53125,17.69763 39.53125,39.53125 0,21.8336 -17.69763,39.5313 -39.53125,39.5312 -21.83363,0 -39.53126,-17.6976 -39.53126,-39.5312 0,-21.83362 17.69763,-39.53125 39.53126,-39.53125 z"
       id="rect4426-8"
       sodipodi:nodetypes="cccccsssss" />
    <path
       style="fill:#dcd4c7;fill-opacity:1;stroke:none"
       d="m 0,952.375 0,100 100,0 0,-100 -100,0 z m 50,10.46875 c 21.833621,0 39.53125,17.69763 39.53125,39.53125 0,21.8336 -17.697629,39.5313 -39.53125,39.5312 -21.833621,0 -39.53125,-17.6976 -39.53125,-39.5312 0,-21.83362 17.697629,-39.53125 39.53125,-39.53125 z"
       id="rect4426"
       inkscape:connector-curvature="0" />
  </g>
</svg>
